<svg width="231" height="117" fill="none" xmlns="http://www.w3.org/2000/svg"><path d="M212.727.248h4.343L209.5 13.13v6.85h-4.244v-6.825L197.66.248h4.989l4.989 8.91h.249l4.84-8.91zM193.013 9.58v.25c3.053.446 4.939 2.034 4.939 4.69 0 3.425-2.433 5.46-6.528 5.46h-10.375V.249h9.531c4.145 0 6.528 1.887 6.528 5.088 0 2.26-1.588 3.699-4.095 4.245zm-3.426-6.403h-4.319v5.287h4.319c1.912 0 3.004-.943 3.004-2.631 0-1.663-1.092-2.656-3.004-2.656zm-4.319 13.875h5.138c1.912 0 3.029-1.067 3.029-2.854 0-1.763-1.167-2.805-3.128-2.805h-5.039v5.659zm-21.836 2.928h-7.471V.249h7.471c5.635 0 9.432 3.947 9.432 9.879 0 5.907-3.797 9.854-9.432 9.854zm-3.251-16.828v13.925h3.177c3.202 0 4.989-2.284 4.989-6.95s-1.787-6.975-4.989-6.975h-3.177zm-16.968 8.216v5.709h10.351v2.904h-14.57V.248h14.322v2.904h-10.103V8.44h7v2.929h-7zM136.851.248v2.904h-6.106v16.829h-4.244V3.152h-6.131V.248h16.481zm-22.128 13.478L114.598.248h3.674v19.733h-3.922l-8.935-13.478h-.249l.125 13.478h-3.674V.248h3.922l8.935 13.478h.249zM88.87 11.368v5.709h10.35v2.904H84.65V.248h14.32v2.904h-10.1V8.44h7v2.929h-7zM73.743 20.23c-4.443 0-7.62-2.384-8.539-6.157l4.096-.57c.596 2.308 2.283 3.772 4.716 3.772 2.11 0 3.624-1.042 3.624-2.606 0-4.046-11.74-1.812-11.74-8.712C65.9 2.557 69.001 0 73.692 0c4.145 0 7.124 2.383 7.993 6.007l-4.071.57c-.521-2.258-2.01-3.623-4.046-3.623-1.862 0-3.152.943-3.152 2.432 0 4.145 11.765 1.713 11.765 8.787 0 3.624-3.376 6.056-8.44 6.056zm-20.021-8.862v5.709h10.35v2.904h-14.57V.248h14.322v2.904H53.722V8.44h7v2.929h-7zm-8.818 1.663l2.357 6.95h-4.715l-1.887-6.454c-.298-.992-.968-1.414-2.184-1.414h-4.096v7.868h-4.22V.248h9.26c4.169 0 6.9 2.16 6.9 5.46 0 2.458-2.036 4.344-5.139 4.766v.249c1.986 0 3.153.645 3.724 2.308zM34.379 9.184h4.071c2.135 0 3.35-1.117 3.35-3.004 0-1.91-1.215-3.028-3.35-3.028h-4.07v6.032zM21.02.248c4.17 0 6.9 2.457 6.9 6.205 0 4.021-2.73 6.628-6.9 6.628h-5.038v6.9h-4.22V.248h9.258zm-5.038 9.904h3.897c2.258 0 3.524-1.266 3.524-3.5 0-2.21-1.265-3.5-3.524-3.5h-3.897v7z" fill="#001838"/><g clip-path="url(#clip0_11658_14440)"><mask id="mask0_11658_14440" style="mask-type:luminance" maskUnits="userSpaceOnUse" x="0" y="28" width="231" height="89"><path d="M230.033 28H0v89h230.033V28z" fill="#fff"/></mask><g mask="url(#mask0_11658_14440)" fill="#001838"><path d="M230.031 28h-12.706a10.631 10.631 0 00-8.799 4.661l-16.992 25.051a1.142 1.142 0 01-1.887 0l-16.994-25.05A10.626 10.626 0 00163.854 28h-12.706l30.272 44.624L151.315 117h12.706c3.525 0 6.82-1.744 8.8-4.661l16.826-24.803a1.142 1.142 0 011.887 0l16.825 24.803a10.626 10.626 0 008.799 4.661h12.707l-30.104-44.376L230.031 28zm-105.029 9.104V117h6.073c5.032 0 9.111-4.075 9.111-9.104V28h-6.073c-5.033 0-9.111 4.075-9.111 9.104zM113.869 28h-5.405a12.736 12.736 0 00-12.424 9.91L83.95 91.02 73.368 41.442C71.411 32.28 62.003 26.1 52.375 28.757c-6.132 1.692-10.678 6.87-12.005 13.086L29.896 90.954 17.828 37.913A12.747 12.747 0 005.401 28H0l20.254 88.996h7.674a14.756 14.756 0 0014.433-11.672l12.948-60.72a1.648 1.648 0 011.605-1.299c.769 0 1.445.546 1.604 1.3l12.96 60.723c1.452 6.806 7.469 11.668 14.433 11.668h7.7L113.869 28z"/></g></g><defs><clipPath id="clip0_11658_14440"><path fill="#fff" transform="translate(0 28)" d="M0 0h231v89H0z"/></clipPath></defs></svg>